#Comment line ignore any data following # character 
#Hierarchical Translation and Rotation (.htr) file 
[Header]	
#Header keywords are followed by a single value 
FileType HTR		#Single word string
DataType HTRS		#Translation followed by rotation and scale data
FileVersion 1		#integer
NumSegments 84		#integer
NumFrames 2		#integer
DataFrameRate 30		#integer, data frame rate in this file
EulerRotationOrder ZYX
CalibrationUnits mm
RotationUnits Degrees
GlobalAxisofGravity Y
BoneLengthAxis Y
ScaleFactor 1.00
[SegmentNames&Hierarchy]
#CHILD	PARENT
MASTER GLOBAL
root MASTER
chest root
L_mid_tent01 root
R_mid_tent01 root
spine01 root
Bip01_Neck chest
L_humerus chest
R_humerus chest
weapon_bone chest
Bip01_Head Bip01_Neck
eye_left_bone Bip01_Head
eye_right_bone Bip01_Head
L_forearm L_humerus
L_front_hand L_forearm
L_weapon_bone L_forearm
L_front_hand01_01 L_front_hand
L_front_hand02_01 L_front_hand
L_front_hand03_01 L_front_hand
L_front_hand01_02 L_front_hand01_01
L_front_hand02_02 L_front_hand02_01
L_front_hand03_02 L_front_hand03_01
R_forearm R_humerus
R_front_hand R_forearm
R_weapon_bone R_forearm
R_front_hand01_01 R_front_hand
R_front_hand02_01 R_front_hand
R_front_hand03_01 R_front_hand
R_front_hand01_02 R_front_hand01_01
R_front_hand02_02 R_front_hand02_01
R_front_hand03_02 R_front_hand03_01
null_rope01_connect L_mid_tent01
Rope1_Seg01 null_rope01_connect
Rope1_Seg02 Rope1_Seg01
Rope1_Seg03 Rope1_Seg02
Rope1_Seg04 Rope1_Seg03
Rope1_Seg05 Rope1_Seg04
Rope1_Seg06 Rope1_Seg05
Rope1_Seg07 Rope1_Seg06
Rope1_Seg09 Rope1_Seg07
L_mid_hand01 Rope1_Seg09
L_mid_hand02 Rope1_Seg09
L_mid_hand03 Rope1_Seg09
null_rope02_connect R_mid_tent01
Rope2_Seg01 null_rope02_connect
Rope2_Seg02 Rope2_Seg01
Rope2_Seg03 Rope2_Seg02
Rope2_Seg04 Rope2_Seg03
Rope2_Seg05 Rope2_Seg04
Rope2_Seg06 Rope2_Seg05
Rope2_Seg07 Rope2_Seg06
Rope2_Seg09 Rope2_Seg07
R_mid_hand01 Rope2_Seg09
R_mid_hand02 Rope2_Seg09
R_mid_hand03 Rope2_Seg09
spine02 spine01
spine03 spine02
pelvis spine03
null_rope03_connect pelvis
null_rope04_connect pelvis
Rope3_Seg01 null_rope03_connect
Rope3_Seg02 Rope3_Seg01
Rope3_Seg03 Rope3_Seg02
Rope3_Seg04 Rope3_Seg03
Rope3_Seg05 Rope3_Seg04
Rope3_Seg06 Rope3_Seg05
Rope3_Seg07 Rope3_Seg06
Rope3_Seg08 Rope3_Seg07
Rope3_Seg09 Rope3_Seg08
R_rear_hand01 Rope3_Seg09
R_rear_hand02 Rope3_Seg09
R_rear_hand03 Rope3_Seg09
Rope4_Seg01 null_rope04_connect
Rope4_Seg02 Rope4_Seg01
Rope4_Seg03 Rope4_Seg02
Rope4_Seg04 Rope4_Seg03
Rope4_Seg05 Rope4_Seg04
Rope4_Seg06 Rope4_Seg05
Rope4_Seg07 Rope4_Seg06
Rope4_Seg08 Rope4_Seg07
Rope4_Seg09 Rope4_Seg08
L_rear_hand01 Rope4_Seg09
L_rear_hand02 Rope4_Seg09
L_rear_hand03 Rope4_Seg09
[BasePosition]
#SegmentName Tx, Ty, Tz, Rx, Ry, Rz, BoneLength
MASTER 0.000000 0.000000 0.000000 -90.000000 0.000000 0.000000 10.000000 
root 0.000000 0.000000 0.000000 0.000000 0.000000 0.000000 10.000000 
chest 0.000000 0.000000 0.000000 0.000000 0.000000 0.000000 10.000000 
L_mid_tent01 0.000000 0.000000 0.000000 0.000000 0.000000 0.000000 10.000000 
R_mid_tent01 0.000000 0.000000 0.000000 0.000000 0.000000 0.000000 10.000000 
spine01 0.000000 0.000000 0.000000 0.000000 0.000000 0.000000 10.000000 
Bip01_Neck 0.000000 0.000000 0.000000 0.000000 0.000000 0.000000 10.000000 
L_humerus 0.000000 0.000000 0.000000 0.000000 0.000000 0.000000 10.000000 
R_humerus 0.000000 0.000000 0.000000 0.000000 0.000000 0.000000 10.000000 
weapon_bone 0.000000 0.000000 0.000000 0.000000 0.000000 0.000000 10.000000 
Bip01_Head 0.000000 0.000000 0.000000 0.000000 0.000000 0.000000 10.000000 
eye_left_bone 0.000000 0.000000 0.000000 0.000000 0.000000 0.000000 10.000000 
eye_right_bone 0.000000 0.000000 0.000000 0.000000 0.000000 0.000000 10.000000 
L_forearm 0.000000 0.000000 0.000000 0.000000 0.000000 0.000000 10.000000 
L_front_hand 0.000000 0.000000 0.000000 0.000000 0.000000 0.000000 10.000000 
L_weapon_bone 0.000000 0.000000 0.000000 0.000000 0.000000 0.000000 10.000000 
L_front_hand01_01 0.000000 0.000000 0.000000 0.000000 0.000000 0.000000 10.000000 
L_front_hand02_01 0.000000 0.000000 0.000000 0.000000 0.000000 0.000000 10.000000 
L_front_hand03_01 0.000000 0.000000 0.000000 0.000000 0.000000 0.000000 10.000000 
L_front_hand01_02 0.000000 0.000000 0.000000 0.000000 0.000000 0.000000 10.000000 
L_front_hand02_02 0.000000 0.000000 0.000000 0.000000 0.000000 0.000000 10.000000 
L_front_hand03_02 0.000000 0.000000 0.000000 0.000000 0.000000 0.000000 10.000000 
R_forearm 0.000000 0.000000 0.000000 0.000000 0.000000 0.000000 10.000000 
R_front_hand 0.000000 0.000000 0.000000 0.000000 0.000000 0.000000 10.000000 
R_weapon_bone 0.000000 0.000000 0.000000 0.000000 0.000000 0.000000 10.000000 
R_front_hand01_01 0.000000 0.000000 0.000000 0.000000 0.000000 0.000000 10.000000 
R_front_hand02_01 0.000000 0.000000 0.000000 0.000000 0.000000 0.000000 10.000000 
R_front_hand03_01 0.000000 0.000000 0.000000 0.000000 0.000000 0.000000 10.000000 
R_front_hand01_02 0.000000 0.000000 0.000000 0.000000 0.000000 0.000000 10.000000 
R_front_hand02_02 0.000000 0.000000 0.000000 0.000000 0.000000 0.000000 10.000000 
R_front_hand03_02 0.000000 0.000000 0.000000 0.000000 0.000000 0.000000 10.000000 
null_rope01_connect 0.000000 0.000000 0.000000 0.000000 0.000000 0.000000 10.000000 
Rope1_Seg01 0.000000 0.000000 0.000000 0.000000 0.000000 0.000000 10.000000 
Rope1_Seg02 0.000000 0.000000 0.000000 0.000000 0.000000 0.000000 10.000000 
Rope1_Seg03 0.000000 0.000000 0.000000 0.000000 0.000000 0.000000 10.000000 
Rope1_Seg04 0.000000 0.000000 0.000000 0.000000 0.000000 0.000000 10.000000 
Rope1_Seg05 0.000000 0.000000 0.000000 0.000000 0.000000 0.000000 10.000000 
Rope1_Seg06 0.000000 0.000000 0.000000 0.000000 0.000000 0.000000 10.000000 
Rope1_Seg07 0.000000 0.000000 0.000000 0.000000 0.000000 0.000000 10.000000 
Rope1_Seg09 0.000000 0.000000 0.000000 0.000000 0.000000 0.000000 10.000000 
L_mid_hand01 0.000000 0.000000 0.000000 0.000000 0.000000 0.000000 10.000000 
L_mid_hand02 0.000000 0.000000 0.000000 0.000000 0.000000 0.000000 10.000000 
L_mid_hand03 0.000000 0.000000 0.000000 0.000000 0.000000 0.000000 10.000000 
null_rope02_connect 0.000000 0.000000 0.000000 0.000000 0.000000 0.000000 10.000000 
Rope2_Seg01 0.000000 0.000000 0.000000 0.000000 0.000000 0.000000 10.000000 
Rope2_Seg02 0.000000 0.000000 0.000000 0.000000 0.000000 0.000000 10.000000 
Rope2_Seg03 0.000000 0.000000 0.000000 0.000000 0.000000 0.000000 10.000000 
Rope2_Seg04 0.000000 0.000000 0.000000 0.000000 0.000000 0.000000 10.000000 
Rope2_Seg05 0.000000 0.000000 0.000000 0.000000 0.000000 0.000000 10.000000 
Rope2_Seg06 0.000000 0.000000 0.000000 0.000000 0.000000 0.000000 10.000000 
Rope2_Seg07 0.000000 0.000000 0.000000 0.000000 0.000000 0.000000 10.000000 
Rope2_Seg09 0.000000 0.000000 0.000000 0.000000 0.000000 0.000000 10.000000 
R_mid_hand01 0.000000 0.000000 0.000000 0.000000 0.000000 0.000000 10.000000 
R_mid_hand02 0.000000 0.000000 0.000000 0.000000 0.000000 0.000000 10.000000 
R_mid_hand03 0.000000 0.000000 0.000000 0.000000 0.000000 0.000000 10.000000 
spine02 0.000000 0.000000 0.000000 0.000000 0.000000 0.000000 10.000000 
spine03 0.000000 0.000000 0.000000 0.000000 0.000000 0.000000 10.000000 
pelvis 0.000000 0.000000 0.000000 0.000000 0.000000 0.000000 10.000000 
null_rope03_connect 0.000000 0.000000 0.000000 0.000000 0.000000 0.000000 10.000000 
null_rope04_connect 0.000000 0.000000 0.000000 0.000000 0.000000 0.000000 10.000000 
Rope3_Seg01 0.000000 0.000000 0.000000 0.000000 0.000000 0.000000 10.000000 
Rope3_Seg02 0.000000 0.000000 0.000000 0.000000 0.000000 0.000000 10.000000 
Rope3_Seg03 0.000000 0.000000 0.000000 0.000000 0.000000 0.000000 10.000000 
Rope3_Seg04 0.000000 0.000000 0.000000 0.000000 0.000000 0.000000 10.000000 
Rope3_Seg05 0.000000 0.000000 0.000000 0.000000 0.000000 0.000000 10.000000 
Rope3_Seg06 0.000000 0.000000 0.000000 0.000000 0.000000 0.000000 10.000000 
Rope3_Seg07 0.000000 0.000000 0.000000 0.000000 0.000000 0.000000 10.000000 
Rope3_Seg08 0.000000 0.000000 0.000000 0.000000 0.000000 0.000000 10.000000 
Rope3_Seg09 0.000000 0.000000 0.000000 0.000000 0.000000 0.000000 10.000000 
R_rear_hand01 0.000000 0.000000 0.000000 0.000000 0.000000 0.000000 10.000000 
R_rear_hand02 0.000000 0.000000 0.000000 0.000000 0.000000 0.000000 10.000000 
R_rear_hand03 0.000000 0.000000 0.000000 0.000000 0.000000 0.000000 10.000000 
Rope4_Seg01 0.000000 0.000000 0.000000 0.000000 0.000000 0.000000 10.000000 
Rope4_Seg02 0.000000 0.000000 0.000000 0.000000 0.000000 0.000000 10.000000 
Rope4_Seg03 0.000000 0.000000 0.000000 0.000000 0.000000 0.000000 10.000000 
Rope4_Seg04 0.000000 0.000000 0.000000 0.000000 0.000000 0.000000 10.000000 
Rope4_Seg05 0.000000 0.000000 0.000000 0.000000 0.000000 0.000000 10.000000 
Rope4_Seg06 0.000000 0.000000 0.000000 0.000000 0.000000 0.000000 10.000000 
Rope4_Seg07 0.000000 0.000000 0.000000 0.000000 0.000000 0.000000 10.000000 
Rope4_Seg08 0.000000 0.000000 0.000000 0.000000 0.000000 0.000000 10.000000 
Rope4_Seg09 0.000000 0.000000 0.000000 0.000000 0.000000 0.000000 10.000000 
L_rear_hand01 0.000000 0.000000 0.000000 0.000000 0.000000 0.000000 10.000000 
L_rear_hand02 0.000000 0.000000 0.000000 0.000000 0.000000 0.000000 10.000000 
L_rear_hand03 0.000000 0.000000 0.000000 0.000000 0.000000 0.000000 10.000000 
#Beginning of Data. Separated by tabs
#Fr	Tx	Ty	Tz	Rx	Ry	Rz	SF
[MASTER]
8 0.000000 0.000000 0.000000 0.001660 0.001660 0.001660 0.000000
9 0.000000 0.000000 0.000000 0.001660 0.001660 0.001660 0.000000
[root]
8 -2.080479 -11.941568 1482.710449 -91.706375 7.188744 -90.037125 1482.760010
9 -2.109028 -13.196053 1479.332520 -91.706375 7.188744 -90.037125 1479.392944
[chest]
8 -84.512650 -34.090519 0.000000 -2.117274 0.462005 -179.268204 91.129311
9 -84.512650 -34.090519 0.000000 -2.117274 0.462005 -179.268204 91.129311
[L_mid_tent01]
8 27.299511 22.177458 -249.918259 -11.212391 7.173965 46.128521 252.381134
9 27.299511 22.177458 -249.918259 -11.212391 7.173965 46.128521 252.381134
[R_mid_tent01]
8 23.228794 24.509907 226.238495 -173.453110 -7.865566 48.320805 228.744751
9 23.228794 24.509907 226.238495 -173.453110 -7.865566 48.320808 228.744751
[spine01]
8 -0.361383 -0.195265 0.000000 -0.000001 -0.000007 22.052340 0.410763
9 -0.361383 -0.195265 0.000000 -0.000001 -0.000007 22.052340 0.410763
[Bip01_Neck]
8 165.484543 71.581718 0.000119 175.896118 1.177290 24.871183 180.302734
9 165.484543 71.581718 0.000119 175.896118 1.177290 24.871183 180.302734
[L_humerus]
8 -13.983130 -135.272980 -120.471481 177.317520 0.814944 177.327347 181.680161
9 -13.983130 -135.272980 -120.471481 177.317520 0.814944 177.327347 181.680161
[R_humerus]
8 -13.983309 -135.273102 125.287651 -179.087967 -0.295690 175.068390 184.909012
9 -13.983309 -135.273102 125.287651 -179.087967 -0.295690 175.068390 184.909012
[weapon_bone]
8 235.964890 -300.705902 0.000000 0.000000 -89.951546 -128.212341 382.234833
9 235.964890 -300.705902 0.000000 0.000000 -89.951546 -128.212341 382.234833
[Bip01_Head]
8 97.775497 22.186661 5.309563 3.366013 3.339072 -18.399078 100.401627
9 97.775497 22.186661 5.309563 3.366011 3.339070 -18.399073 100.401627
[eye_left_bone]
8 -24.626970 125.451866 -64.772606 0.000000 -90.000000 -99.840431 143.318359
9 -24.626970 125.451866 -64.772606 0.000000 -90.000000 -99.840431 143.318359
[eye_right_bone]
8 -24.626970 125.451866 64.327362 0.000000 -89.980217 80.156380 143.117676
9 -24.626970 125.451866 64.327362 0.000000 -89.965736 80.156380 143.117676
[L_forearm]
8 322.776093 0.000000 -0.000119 0.001372 -0.001904 -161.553818 322.776093
9 322.776093 0.000000 -0.000119 0.001372 -0.001904 -161.553818 322.776093
[L_front_hand]
8 241.149185 -0.042021 -3.300071 -179.659958 -2.242151 -0.019832 241.171753
9 241.149185 -0.042021 -3.300071 -179.659958 -2.242151 -0.019832 241.171753
[L_weapon_bone]
8 156.183838 0.000000 0.000000 0.000014 0.000007 0.000001 156.183838
9 156.183838 0.000000 0.000000 0.000014 0.000007 0.000001 156.183838
[L_front_hand01_01]
8 86.095154 20.947098 -0.655860 0.405585 -0.442306 -4.620490 88.609184
9 86.095154 20.947098 -0.655860 0.405585 -0.442306 -4.620490 88.609184
[L_front_hand02_01]
8 86.935165 -11.437475 24.513514 116.959465 3.630818 1.495453 91.046425
9 86.935165 -11.437475 24.513514 116.959450 3.630817 1.495453 91.046425
[L_front_hand03_01]
8 86.637497 -14.123976 -20.424902 -118.419884 -4.660555 -0.155069 90.126129
9 86.637497 -14.123976 -20.424902 -118.419884 -4.660555 -0.155069 90.126129
[L_front_hand01_02]
8 71.020905 -0.000179 0.000030 0.000004 -0.000005 -8.379269 71.020905
9 71.020905 -0.000179 0.000030 0.000004 -0.000005 -8.379269 71.020905
[L_front_hand02_02]
8 71.020927 -0.000119 0.000060 -0.000005 -0.000004 -8.379259 71.020927
9 71.020927 -0.000119 0.000060 -0.000005 -0.000004 -8.379259 71.020927
[L_front_hand03_02]
8 71.020905 -0.000060 0.000060 0.000015 -0.000040 -8.379267 71.020905
9 71.020905 -0.000060 0.000060 0.000015 -0.000040 -8.379267 71.020905
[R_forearm]
8 322.776428 -0.000060 0.000030 0.066610 0.203476 -163.260239 322.776428
9 322.776428 -0.000060 0.000030 0.066610 0.203476 -163.260239 322.776428
[R_front_hand]
8 238.847015 -0.006795 2.210259 -0.270529 1.703932 2.322530 238.857239
9 238.847015 -0.006795 2.210259 -0.270529 1.703932 2.322530 238.857239
[R_weapon_bone]
8 155.664093 0.002503 -0.000030 0.003487 0.001180 -90.988930 155.664078
9 155.664093 0.002503 -0.000030 0.003487 0.001180 -90.988930 155.664078
[R_front_hand01_01]
8 87.624611 14.231146 22.918642 -116.960213 3.496675 -1.324139 91.683487
9 87.624611 14.231146 22.918642 -116.960213 3.496675 -1.324139 91.683487
[R_front_hand02_01]
8 89.356956 14.367283 -19.491137 118.419647 -4.257089 0.609827 92.579636
9 89.356956 14.367283 -19.491137 118.419647 -4.257089 0.609827 92.579636
[R_front_hand03_01]
8 87.286232 -22.307278 -0.143439 -0.387970 -0.231462 4.232001 90.091743
9 87.286232 -22.307278 -0.143439 -0.387970 -0.231462 4.232001 90.091743
[R_front_hand01_02]
8 71.020905 0.000060 0.000119 -0.000005 -0.000020 8.379271 71.020905
9 71.020905 0.000060 0.000119 -0.000005 -0.000020 8.379271 71.020905
[R_front_hand02_02]
8 71.020844 -0.000030 -0.000119 0.000000 -0.000021 8.379271 71.020836
9 71.020844 -0.000030 -0.000119 0.000000 -0.000021 8.379271 71.020836
[R_front_hand03_02]
8 71.020905 0.000000 0.000030 -0.000001 -0.000020 8.379275 71.020905
9 71.020905 0.000000 0.000030 -0.000001 -0.000020 8.379275 71.020905
[null_rope01_connect]
8 328.732483 0.000000 -0.000238 160.552872 -75.066147 -124.625038 328.732483
9 328.732483 0.000000 -0.000238 160.552872 -75.066147 -124.625038 328.732483
[Rope1_Seg01]
8 0.000000 0.000000 0.000000 -110.103600 53.291325 -108.327568 0.000000
9 0.000000 0.000000 0.000000 -113.363945 52.911572 -110.283539 0.000000
[Rope1_Seg02]
8 139.999863 -0.000179 0.000000 32.717407 -12.723557 -14.414637 139.999863
9 139.999863 -0.000179 0.000000 35.272717 -12.973273 -15.384047 139.999863
[Rope1_Seg03]
8 139.999924 0.000060 -0.000060 15.291771 -14.024530 -3.116903 139.999924
9 139.999924 0.000060 -0.000060 16.062170 -14.631959 -3.221823 139.999924
[Rope1_Seg04]
8 139.999924 -0.000060 -0.000119 6.227670 -10.591712 1.244460 139.999924
9 139.999924 -0.000060 -0.000119 6.381964 -10.884693 1.278900 139.999924
[Rope1_Seg05]
8 139.999832 0.000119 -0.000060 0.318780 0.754938 -1.415729 139.999832
9 139.999832 0.000119 -0.000060 0.217414 0.676506 -1.154392 139.999832
[Rope1_Seg06]
8 139.999954 0.000119 -0.000060 -6.166295 11.679285 -6.482005 139.999954
9 139.999954 0.000119 -0.000060 -6.345874 11.529245 -5.709250 139.999954
[Rope1_Seg07]
8 139.999985 0.000060 0.000000 -49.705853 26.680124 -11.698779 139.999985
9 139.999985 0.000060 0.000000 -45.669010 26.674263 -10.076918 139.999985
[Rope1_Seg09]
8 121.602913 0.000119 -0.000089 -89.793175 -1.359789 0.847147 121.602913
9 121.602913 0.000119 -0.000089 -89.793175 -1.359789 0.847147 121.602913
[L_mid_hand01]
8 103.859421 1.038730 8.195221 106.855484 -31.239275 -9.461397 104.187431
9 103.859421 1.038730 8.195221 106.855484 -31.239275 -9.461397 104.187431
[L_mid_hand02]
8 105.572853 -4.139662 -10.864139 -142.331345 25.752670 -28.774628 106.211075
9 105.572853 -4.139662 -10.864139 -142.331345 25.752670 -28.774628 106.211075
[L_mid_hand03]
8 104.641464 17.579376 -3.913581 -16.122810 9.734291 34.223598 106.179977
9 104.641464 17.579376 -3.913581 -16.122810 9.734291 34.223598 106.179977
[null_rope02_connect]
8 328.732849 0.000179 -0.000119 174.610352 81.478363 -39.424736 328.732849
9 328.732849 0.000179 -0.000119 174.610352 81.478363 -39.424736 328.732849
[Rope2_Seg01]
8 0.000076 0.000110 0.000153 132.300186 48.221447 -92.732292 0.000203
9 0.000076 0.000110 0.000153 135.729568 48.319466 -89.186172 0.000203
[Rope2_Seg02]
8 139.999741 -0.000060 -0.000119 -4.464402 3.591105 4.146009 139.999756
9 139.999741 -0.000060 -0.000119 -5.648780 2.879316 5.662335 139.999756
[Rope2_Seg03]
8 140.000107 0.000030 0.000000 -6.031316 -0.837486 8.661655 140.000107
9 140.000107 0.000030 0.000000 -7.241661 -1.364701 10.544680 140.000107
[Rope2_Seg04]
8 139.999802 0.000000 -0.000060 -1.915205 12.202878 -4.009306 139.999802
9 139.999802 0.000000 -0.000060 -1.511658 10.634810 -3.497536 139.999802
[Rope2_Seg05]
8 139.999985 -0.000060 0.000119 0.791818 5.970942 -3.468929 139.999985
9 139.999985 -0.000060 0.000119 1.173489 5.499343 -3.656359 139.999985
[Rope2_Seg06]
8 139.999893 -0.000030 -0.000119 -0.087498 1.969534 -0.870420 139.999893
9 139.999893 -0.000030 -0.000119 0.047010 1.797435 -0.892893 139.999893
[Rope2_Seg07]
8 139.999893 0.000060 -0.000060 -0.073032 1.193269 -0.523375 139.999893
9 139.999893 0.000060 -0.000060 0.016284 1.089814 -0.542236 139.999893
[Rope2_Seg09]
8 121.338966 0.000089 -0.000060 33.793236 -1.359788 -0.847141 121.338966
9 121.338966 0.000089 -0.000060 33.793236 -1.359788 -0.847141 121.338966
[R_mid_hand01]
8 104.680779 11.144459 -10.335981 -41.523792 25.424656 28.595957 105.778534
9 104.680779 11.144459 -10.335981 -41.523792 25.424656 28.595957 105.778534
[R_mid_hand02]
8 104.070427 2.443552 8.231699 72.847389 -32.746803 10.013901 104.424065
9 104.070427 2.443552 8.231699 72.847389 -32.746803 10.013901 104.424065
[R_mid_hand03]
8 106.028137 -11.221827 -5.996406 -167.901306 10.259192 -37.009720 106.788818
9 106.028137 -11.221827 -5.996406 -167.901306 10.259192 -37.009720 106.788818
[spine02]
8 129.756927 0.001550 0.000119 0.360061 -4.044797 -12.915058 129.756927
9 129.756927 0.001550 0.000119 0.360061 -4.044797 -12.915058 129.756927
[spine03]
8 78.613846 0.087372 -4.898873 1.896495 3.831288 16.473045 78.766380
9 78.613846 0.087372 -4.898873 1.896495 3.831288 16.473045 78.766380
[pelvis]
8 169.435242 0.051022 0.000000 -0.060465 -0.180225 14.087929 169.435257
9 169.435242 0.051022 0.000000 -0.060465 -0.180225 14.087930 169.435257
[null_rope03_connect]
8 -1.257226 -2.466202 137.391083 -168.629776 -89.386429 -148.244614 137.418976
9 -1.257226 -2.466202 137.391083 -168.629776 -89.386429 -148.244614 137.418976
[null_rope04_connect]
8 -1.259640 -2.480268 -137.844437 -168.629776 -89.386429 -148.244614 137.872513
9 -1.259640 -2.480268 -137.844437 -168.629776 -89.386429 -148.244614 137.872513
[Rope3_Seg01]
8 0.000000 0.000000 0.000000 -130.845032 18.839901 -75.711868 0.000000
9 0.000000 0.000000 0.000000 -131.272141 20.545561 -76.684509 0.000000
[Rope3_Seg02]
8 139.999924 -0.000119 0.000060 0.683451 6.637105 2.954604 139.999924
9 139.999924 -0.000119 0.000060 0.717502 6.369453 1.824890 139.999924
[Rope3_Seg03]
8 139.999924 -0.000119 0.000119 2.039874 10.268284 3.716627 139.999924
9 139.999924 -0.000119 0.000119 1.915091 9.775557 1.997399 139.999924
[Rope3_Seg04]
8 139.999924 0.000119 0.000000 7.876824 19.960354 3.921789 139.999924
9 139.999924 0.000119 0.000000 6.753375 19.447634 0.491755 139.999924
[Rope3_Seg05]
8 139.999924 -0.000238 0.000060 -9.113001 -9.364562 9.693994 139.999924
9 139.999924 -0.000238 0.000060 -7.919294 -7.424796 11.706903 139.999924
[Rope3_Seg06]
8 139.999893 -0.000119 -0.000060 -8.280358 -12.807255 5.159746 139.999893
9 139.999893 -0.000119 -0.000060 -8.216664 -10.717388 7.415884 139.999893
[Rope3_Seg07]
8 139.999771 0.000060 -0.000119 -2.450505 -4.867404 2.126060 139.999771
9 139.999771 0.000060 -0.000119 -2.651148 -4.060939 3.046268 139.999771
[Rope3_Seg08]
8 139.999985 -0.000060 0.000000 -1.085275 -2.886503 1.117465 139.999985
9 139.999985 -0.000060 0.000000 -1.275429 -2.433505 1.661350 139.999985
[Rope3_Seg09]
8 90.185997 -0.000179 -0.000060 89.793228 -1.359877 -0.847183 90.185997
9 90.185997 -0.000179 -0.000060 89.793228 -1.359877 -0.847183 90.185997
[R_rear_hand01]
8 103.366196 -6.073594 -10.757982 -161.551193 16.666374 -30.088671 104.101845
9 103.366196 -6.073594 -10.757982 -161.551193 16.666374 -30.088671 104.101845
[R_rear_hand02]
8 100.509819 12.039542 -7.992327 -34.280552 19.289745 28.875523 101.543350
9 100.509819 12.039542 -7.992327 -34.280552 19.289745 28.875523 101.543350
[R_rear_hand03]
8 101.539970 5.215704 5.435467 83.366440 -30.933914 7.284830 101.819031
9 101.539970 5.215704 5.435467 83.366440 -30.933914 7.284830 101.819031
[Rope4_Seg01]
8 0.000010 0.000038 -0.000114 54.523903 21.271496 -80.400917 0.000121
9 0.000010 0.000038 -0.000114 53.758652 20.190319 -81.326111 0.000121
[Rope4_Seg02]
8 139.999985 0.000060 0.000119 2.253944 -3.876977 -7.484207 139.999985
9 139.999985 0.000060 0.000119 2.290463 -2.756380 -7.341972 139.999985
[Rope4_Seg03]
8 139.999924 0.000000 -0.000238 1.813968 -4.399307 -8.406138 139.999924
9 139.999924 0.000000 -0.000238 1.895075 -3.032008 -8.180083 139.999924
[Rope4_Seg04]
8 139.999985 0.000000 0.000119 1.527578 -4.528515 -12.597309 139.999985
9 139.999985 0.000000 0.000119 1.708450 -2.278881 -11.762844 139.999985
[Rope4_Seg05]
8 139.999802 -0.000060 -0.000119 0.150252 -4.533467 -1.127856 139.999802
9 139.999802 -0.000060 -0.000119 0.098667 -4.944751 -1.329310 139.999802
[Rope4_Seg06]
8 139.999924 0.000000 0.000060 0.343416 -3.511263 8.584021 139.999924
9 139.999924 0.000000 0.000060 -0.051286 -5.621133 6.930794 139.999924
[Rope4_Seg07]
8 139.999802 0.000000 0.000000 0.291372 -2.646990 4.171139 139.999802
9 139.999802 0.000000 0.000000 0.276196 -3.607588 2.912684 139.999802
[Rope4_Seg08]
8 139.999924 0.000000 0.000119 -1.314650 -1.773206 2.258014 139.999924
9 139.999924 0.000000 0.000119 -1.280933 -2.286203 1.550931 139.999924
[Rope4_Seg09]
8 90.185791 0.000060 0.000060 -135.617828 2.228885 0.850567 90.185791
9 90.185791 0.000060 0.000060 -135.617828 2.228885 0.850567 90.185791
[L_rear_hand01]
8 101.696655 -8.392275 -7.654577 -34.454281 -18.946800 151.655121 102.329041
9 101.696655 -8.392275 -7.654577 -34.454281 -18.946800 151.655121 102.329041
[L_rear_hand02]
8 102.726799 -1.568258 5.773216 83.407906 30.330435 172.796509 102.900848
9 102.726799 -1.568258 5.773216 83.407906 30.330435 172.796509 102.900848
[L_rear_hand03]
8 104.552910 9.721220 -10.420293 -161.379868 -16.473232 -150.512238 105.519653
9 104.552910 9.721220 -10.420293 -161.379868 -16.473232 -150.512238 105.519653
